<svg data-v-0dd9719b="" version="1.0" xmlns="http://www.w3.org/2000/svg" xmlns:xlink="http://www.w3.org/1999/xlink"
   width="100%" height="100%" viewBox="0 0 340.000000 250.000000" preserveAspectRatio="xMidYMid meet"
   color-interpolation-filters="sRGB" style="margin: auto;">
   <rect data-v-0dd9719b="" x="0" y="0" width="100%" height="100%" fill="transparent" fill-opacity="1"
      class="background"></rect>
   <rect data-v-0dd9719b="" x="0" y="0" width="100%" height="100%" fill="url(#watermark)" fill-opacity="1"
      class="watermarklayer"></rect>
   <g data-v-0dd9719b="" fill="#fa709a" class="icon-text-wrapper icon-svg-group iconsvg"
      transform="translate(88.71499633789062,95.16700172424316)">
      <g class="iconsvg-imagesvg" transform="translate(0,1.2740821838378906)"
         mask="url(#76d39435-75db-4621-96fa-6d1e22c598df)">
         <g>
            <rect fill="#fa709a" fill-opacity="0" stroke-width="2" x="0" y="0" width="60" height="57.11783409173125"
               class="image-rect"></rect> <svg filter="url(#colors7574314462)" x="0" y="0" width="60"
               height="57.11783409173125" filtersec="colorsf2541632826" class="image-svg-svg primary"
               style="overflow: visible;"><svg xmlns="http://www.w3.org/2000/svg"
                  viewBox="6.084029197692871 7.328342914581299 51.8326416015625 49.34296798706055" x="0px" y="0px">
                  <g data-name="geometric">
                     <path
                        d="M54.86,28.151a.99974.99974,0,0,0-.93457-.8877l-4.9356-.29449L48.443,22.05436a.99974.99974,0,0,0-.93457-.8877l-4.93646-.29455L42.025,15.9567a.99973.99973,0,0,0-.93457-.88769l-4.9364-.29456L35.607,9.86a.99975.99975,0,0,0-.93458-.88769L7.14267,7.32975A1.00546,1.00546,0,0,0,6.08946,8.43816L9.13974,35.8483a.99966.99966,0,0,0,.93408.8877l4.93653.29455.54687,4.91443a.99966.99966,0,0,0,.93408.8877l4.9364.29455.547,4.91541a.99965.99965,0,0,0,.93408.88769l4.93653.29456.54687,4.91443a.99965.99965,0,0,0,.93408.88769L56.857,56.66959a1.001,1.001,0,0,0,1.05371-1.1084ZM46.54843,23.113l.41559,3.735-3.75214-.22388-.41552-3.735ZM20.56314,35.35819l-3.75159-.22382-2.186-19.64056,19.72711,1.17682.41577,3.7359-14.79083-.88245a.99962.99962,0,0,0-1.05322,1.1084Zm.47992-13.76672,13.94995.83215.41565,3.73492-9.01355-.53778a.987.987,0,0,0-.78467.30957.99839.99839,0,0,0-.26855.79883l.99859,8.97363L22.58871,35.479Zm15.97577.953,3.75171.22382.41559,3.735-3.75159-.22388Zm-.48016,13.76672L28.366,35.82364l-.90546-8.13549,8.17267.48754ZM26.565,37.72l.41565,3.73492-3.75171-.22382-.41571-3.735Zm2.02558.12084,9.01355.53779a1.001,1.001,0,0,0,1.05371-1.1084L37.659,28.29654l3.75146.22376,1.54517,13.88757L29.0062,41.57572Zm15.43054,6.63447a1.00743,1.00743,0,0,0,1.0537-1.10841l-1.63848-14.7257,3.75207.22388,2.18525,19.6405L29.64651,47.32871l-.41583-3.7359Zm-3.89063-27.46.41565,3.736-3.75177-.22382-.41583-3.736ZM11.03427,34.78971,8.2081,9.39713l25.50439,1.52148.41571,3.735-20.568-1.22717a.99962.99962,0,0,0-1.05322,1.1084l2.27893,20.47869Zm6.41748,6.09668-.41571-3.735,3.75153.22382.41565,3.735ZM23.86923,46.984l-.41583-3.736,3.75165.22382.41577,3.736Zm6.41748,6.09668-.41571-3.735,20.56806,1.22717a1.001,1.001,0,0,0,1.05371-1.1084L49.2142,28.98588l3.75122.22375L55.7916,54.60221Z">
                     </path>
                  </g>
               </svg></svg>
            <defs>
               <filter id="colors7574314462">
                  <feColorMatrix type="matrix" values="0 0 0 0 0.9765625  0 0 0 0 0.4375  0 0 0 0 0.6015625  0 0 0 1 0"
                     class="icon-fecolormatrix"></feColorMatrix>
               </filter>
               <filter id="colorsf2541632826">
                  <feColorMatrix type="matrix"
                     values="0 0 0 0 0.99609375  0 0 0 0 0.99609375  0 0 0 0 0.99609375  0 0 0 1 0"
                     class="icon-fecolormatrix"></feColorMatrix>
               </filter>
               <filter id="colorsb3090961947">
                  <feColorMatrix type="matrix" values="0 0 0 0 0  0 0 0 0 0  0 0 0 0 0  0 0 0 1 0"
                     class="icon-fecolormatrix"></feColorMatrix>
               </filter>
            </defs>
         </g>
         <rect v-gra="id" width="72" height="69.11783218383789" transform="translate(-6, -6)"
            style="pointer-events:none;" fill="url(#lpVe7xahuUfKEsU-N19BD)"></rect>
      </g>
      <g transform="translate(67,0)">
         <g data-gra="path-name" fill-rule="" class="tp-name iconsvg-namesvg" transform="translate(0,0)"
            fill="url(#55bda0ac-40e2-4dfb-8628-bec175d26e88)">
            <g transform="scale(1)">
               <g>
                  <path
                     d="M50.27-35.48L50.27-30.21Q50.27-27.39 49.58-25.17 48.88-22.95 47.69-21.25 46.5-19.55 44.94-18.34 43.39-17.14 41.69-16.36 39.99-15.58 38.26-15.23 36.53-14.89 35.01-14.89L35.01-14.89 52.24 0 39.48 0 22.28-14.89 16.35-14.89 16.35-23.14 35.01-23.14Q36.56-23.26 37.85-23.79 39.13-24.31 40.07-25.2 41.01-26.09 41.51-27.34 42.02-28.6 42.02-30.21L42.02-30.21 42.02-35.42Q42.02-36.12 41.85-36.48 41.67-36.85 41.4-37.02 41.13-37.2 40.83-37.23 40.53-37.26 40.28-37.26L40.28-37.26 13.04-37.26 13.04 0 4.79 0 4.79-41.35Q4.79-42.21 5.11-42.97 5.43-43.74 5.98-44.31 6.54-44.88 7.3-45.2 8.06-45.51 8.95-45.51L8.95-45.51 40.28-45.51Q43.04-45.51 44.94-44.51 46.85-43.51 48.04-42.01 49.23-40.5 49.75-38.75 50.27-37.01 50.27-35.48L50.27-35.48ZM100.36-8.25L100.36 0 62.71 0Q61.83 0 61.06-0.32 60.3-0.63 59.75-1.19 59.19-1.75 58.87-2.51 58.56-3.27 58.56-4.16L58.56-4.16 58.56-45.51 66.81-45.51 66.81-8.25 100.36-8.25Z"
                     transform="translate(-4.789999961853027, 45.5099983215332)"></path>
               </g>
               <!---->
               <!---->
               <!---->
               <!---->
               <!---->
               <!---->
               <!---->
            </g>
         </g>
         <g data-gra="path-slogan" fill-rule="" class="tp-slogan iconsvg-slogansvg"
            fill="url(#7ec90877-f4c7-45e5-88e9-4f74738ef71c)" transform="translate(4.700000762939453,51.5099983215332)">
            <!---->
            <!---->
            <g transform="scale(1, 1)">
               <g transform="scale(1)">
                  <path
                     d="M2.08-4.14L2.08-7.07L3.40-7.07C4.01-7.07 4.48-6.96 4.81-6.76C5.14-6.55 5.30-6.18 5.30-5.66C5.30-5.15 5.14-4.77 4.81-4.52C4.48-4.27 4.01-4.14 3.40-4.14ZM5.40 0L6.53 0L4.54-3.43C5.07-3.57 5.50-3.82 5.82-4.19C6.14-4.56 6.30-5.05 6.30-5.66C6.30-6.07 6.23-6.42 6.10-6.70C5.96-6.98 5.77-7.20 5.53-7.38C5.28-7.56 4.99-7.68 4.65-7.76C4.31-7.83 3.94-7.87 3.54-7.87L1.08-7.87L1.08 0L2.08 0L2.08-3.32L3.50-3.32ZM11.28-3.20L8.92-3.20L9.29-4.40C9.43-4.84 9.57-5.28 9.70-5.72C9.82-6.15 9.95-6.60 10.07-7.06L10.12-7.06C10.24-6.60 10.37-6.15 10.50-5.72C10.63-5.28 10.76-4.84 10.91-4.40ZM11.53-2.40L12.28 0L13.34 0L10.68-7.87L9.55-7.87L6.89 0L7.91 0L8.66-2.40ZM14.47-1.62L13.75-1.12C14.22-0.28 14.94 0.14 15.92 0.14C16.31 0.14 16.64 0.08 16.91-0.05C17.19-0.18 17.41-0.35 17.59-0.58C17.76-0.80 17.89-1.06 17.97-1.36C18.05-1.66 18.10-1.98 18.10-2.32L18.10-7.87L17.09-7.87L17.09-2.41C17.09-1.81 16.98-1.38 16.78-1.12C16.57-0.86 16.25-0.73 15.83-0.73C15.55-0.73 15.30-0.80 15.07-0.94C14.85-1.08 14.65-1.31 14.47-1.62ZM19.76-1.62L19.04-1.12C19.51-0.28 20.23 0.14 21.22 0.14C21.60 0.14 21.93 0.08 22.21-0.05C22.48-0.18 22.71-0.35 22.88-0.58C23.05-0.80 23.18-1.06 23.26-1.36C23.35-1.66 23.39-1.98 23.39-2.32L23.39-7.87L22.38-7.87L22.38-2.41C22.38-1.81 22.28-1.38 22.07-1.12C21.86-0.86 21.54-0.73 21.12-0.73C20.84-0.73 20.59-0.80 20.36-0.94C20.14-1.08 19.94-1.31 19.76-1.62ZM25.51-7.87L25.51 0L26.51 0L26.51-7.87ZM30.30-7.03L30.30 0L31.31 0L31.31-7.03L33.68-7.03L33.68-7.87L27.92-7.87L27.92-7.03ZM37.52-7.87L37.52 0L41.96 0L41.96-0.85L38.52-0.85L38.52-7.87ZM46.74-3.20L44.38-3.20L44.75-4.40C44.89-4.84 45.03-5.28 45.16-5.72C45.28-6.15 45.41-6.60 45.53-7.06L45.58-7.06C45.70-6.60 45.83-6.15 45.96-5.72C46.09-5.28 46.22-4.84 46.37-4.40ZM46.99-2.40L47.74 0L48.80 0L46.14-7.87L45.01-7.87L42.35 0L43.37 0L44.12-2.40ZM49.92-7.87L49.92 0L50.92 0L50.92-7.87ZM53.10-1.72L52.50-1.02C52.84-0.66 53.25-0.38 53.72-0.17C54.20 0.04 54.71 0.14 55.26 0.14C55.68 0.14 56.05 0.09 56.38-0.03C56.70-0.15 56.98-0.31 57.22-0.51C57.45-0.71 57.63-0.95 57.75-1.22C57.87-1.50 57.94-1.79 57.94-2.10C57.94-2.39 57.89-2.64 57.81-2.86C57.73-3.08 57.61-3.27 57.47-3.44C57.32-3.60 57.15-3.75 56.95-3.87C56.75-3.99 56.54-4.10 56.32-4.20L55.20-4.68C55.04-4.74 54.88-4.81 54.73-4.89C54.58-4.97 54.44-5.05 54.31-5.15C54.18-5.25 54.08-5.37 54.01-5.50C53.93-5.63 53.89-5.80 53.89-5.99C53.89-6.35 54.03-6.63 54.29-6.83C54.56-7.04 54.92-7.14 55.36-7.14C55.72-7.14 56.05-7.07 56.35-6.94C56.64-6.81 56.90-6.63 57.14-6.40L57.68-7.04C57.40-7.33 57.06-7.57 56.66-7.75C56.26-7.93 55.83-8.02 55.36-8.02C55.00-8.02 54.67-7.96 54.37-7.86C54.07-7.76 53.81-7.61 53.59-7.42C53.37-7.23 53.19-7.01 53.07-6.76C52.95-6.50 52.88-6.22 52.88-5.93C52.88-5.64 52.93-5.39 53.03-5.17C53.12-4.95 53.25-4.76 53.40-4.60C53.55-4.44 53.72-4.30 53.92-4.19C54.11-4.08 54.30-3.98 54.48-3.90L55.61-3.41C55.79-3.32 55.96-3.24 56.12-3.16C56.28-3.08 56.42-2.99 56.54-2.89C56.65-2.79 56.75-2.67 56.81-2.53C56.88-2.39 56.92-2.22 56.92-2.02C56.92-1.63 56.77-1.32 56.48-1.09C56.20-0.85 55.79-0.73 55.27-0.73C54.86-0.73 54.47-0.82 54.09-1.00C53.71-1.18 53.38-1.42 53.10-1.72ZM59.48-7.87L59.48 0L60.48 0L60.48-3.71L64.14-3.71L64.14 0L65.15 0L65.15-7.87L64.14-7.87L64.14-4.57L60.48-4.57L60.48-7.87ZM68.30-4.14L68.30-7.07L69.62-7.07C70.24-7.07 70.71-6.96 71.04-6.76C71.37-6.55 71.53-6.18 71.53-5.66C71.53-5.15 71.37-4.77 71.04-4.52C70.71-4.27 70.24-4.14 69.62-4.14ZM71.63 0L72.76 0L70.76-3.43C71.30-3.57 71.73-3.82 72.05-4.19C72.37-4.56 72.53-5.05 72.53-5.66C72.53-6.07 72.46-6.42 72.32-6.70C72.19-6.98 72.00-7.20 71.75-7.38C71.51-7.56 71.22-7.68 70.88-7.76C70.54-7.83 70.17-7.87 69.77-7.87L67.31-7.87L67.31 0L68.30 0L68.30-3.32L69.73-3.32ZM77.51-3.20L75.14-3.20L75.52-4.40C75.66-4.84 75.80-5.28 75.92-5.72C76.05-6.15 76.18-6.60 76.30-7.06L76.34-7.06C76.47-6.60 76.60-6.15 76.73-5.72C76.86-5.28 76.99-4.84 77.14-4.40ZM77.76-2.40L78.50 0L79.57 0L76.91-7.87L75.78-7.87L73.12 0L74.14 0L74.89-2.40ZM80.69-7.87L80.69 0L81.61 0L81.61-4.33C81.61-4.68 81.60-5.07 81.56-5.50C81.53-5.92 81.50-6.31 81.48-6.66L81.53-6.66L82.15-4.91L83.68-0.79L84.24-0.79L85.75-4.91L86.39-6.66L86.44-6.66C86.40-6.31 86.37-5.92 86.35-5.50C86.32-5.07 86.30-4.68 86.30-4.33L86.30 0L87.25 0L87.25-7.87L86.08-7.87L84.56-3.65L84.01-2.04L83.96-2.04L83.39-3.65L81.86-7.87Z"
                     transform="translate(-1.08, 8.016)"></path>
               </g>
            </g>
         </g>
      </g>
   </g>
   <defs v-gra="od">
      <linearGradient x1="0" y1="1" x2="0" y2="0" id="7ec90877-f4c7-45e5-88e9-4f74738ef71c">
         <stop offset="0%" stop-color="#00c9ff"></stop>
         <stop offset="100%" stop-color="#92fe9d"></stop>
      </linearGradient>
      <filter id="42443b3f1de60f6b6fd3b6a9844b4764" filterUnits="objectBoundingBox">
         <feColorMatrix type="matrix" values="0 0 0 0 0.99609375  0 0 0 0 0.99609375  0 0 0 0 0.99609375  0 0 0 1 0">
         </feColorMatrix>
      </filter>
      <linearGradient x1="0" y1="1" x2="0" y2="0" id="55bda0ac-40e2-4dfb-8628-bec175d26e88">
         <stop offset="0%" stop-color="#00c9ff"></stop>
         <stop offset="100%" stop-color="#92fe9d"></stop>
      </linearGradient>
      <filter id="42443b3f1de60f6b6fd3b6a9844b4764" filterUnits="objectBoundingBox">
         <feColorMatrix type="matrix" values="0 0 0 0 0.99609375  0 0 0 0 0.99609375  0 0 0 0 0.99609375  0 0 0 1 0">
         </feColorMatrix>
      </filter>
   </defs>
   <defs v-gra="id">
      <filter id="238c98d7-26da-4c04-a378-65f98c939680" filterUnits="userSpaceOnUse">
         <feColorMatrix type="matrix" values="0 0 0 0 0.99609375  0 0 0 0 0.99609375  0 0 0 0 0.99609375  0 0 0 1 0">
         </feColorMatrix>
      </filter>
      <linearGradient x1="0" y1="1" x2="0" y2="0" id="lpVe7xahuUfKEsU-N19BD">
         <stop offset="0%" stop-color="#00c9ff"></stop>
         <stop offset="100%" stop-color="#92fe9d"></stop>
      </linearGradient>
      <filter id="42443b3f1de60f6b6fd3b6a9844b4764" filterUnits="objectBoundingBox">
         <feColorMatrix type="matrix" values="0 0 0 0 0.99609375  0 0 0 0 0.99609375  0 0 0 0 0.99609375  0 0 0 1 0">
         </feColorMatrix>
      </filter>
   </defs>
   <mask v-gra="im" id="76d39435-75db-4621-96fa-6d1e22c598df">
      <g class="iconsvg-imagesvg" filter="url(#238c98d7-26da-4c04-a378-65f98c939680)">
         <g>
            <rect fill="#fa709a" fill-opacity="0" stroke-width="2" x="0" y="0" width="60" height="57.11783409173125"
               class="image-rect"></rect> <svg x="0" y="0" width="60" height="57.11783409173125"
               filtersec="colorsf2541632826" class="image-svg-svg primary" style="overflow: visible;"><svg
                  xmlns="http://www.w3.org/2000/svg"
                  viewBox="6.084029197692871 7.328342914581299 51.8326416015625 49.34296798706055" x="0px" y="0px">
                  <g data-name="geometric">
                     <path
                        d="M54.86,28.151a.99974.99974,0,0,0-.93457-.8877l-4.9356-.29449L48.443,22.05436a.99974.99974,0,0,0-.93457-.8877l-4.93646-.29455L42.025,15.9567a.99973.99973,0,0,0-.93457-.88769l-4.9364-.29456L35.607,9.86a.99975.99975,0,0,0-.93458-.88769L7.14267,7.32975A1.00546,1.00546,0,0,0,6.08946,8.43816L9.13974,35.8483a.99966.99966,0,0,0,.93408.8877l4.93653.29455.54687,4.91443a.99966.99966,0,0,0,.93408.8877l4.9364.29455.547,4.91541a.99965.99965,0,0,0,.93408.88769l4.93653.29456.54687,4.91443a.99965.99965,0,0,0,.93408.88769L56.857,56.66959a1.001,1.001,0,0,0,1.05371-1.1084ZM46.54843,23.113l.41559,3.735-3.75214-.22388-.41552-3.735ZM20.56314,35.35819l-3.75159-.22382-2.186-19.64056,19.72711,1.17682.41577,3.7359-14.79083-.88245a.99962.99962,0,0,0-1.05322,1.1084Zm.47992-13.76672,13.94995.83215.41565,3.73492-9.01355-.53778a.987.987,0,0,0-.78467.30957.99839.99839,0,0,0-.26855.79883l.99859,8.97363L22.58871,35.479Zm15.97577.953,3.75171.22382.41559,3.735-3.75159-.22388Zm-.48016,13.76672L28.366,35.82364l-.90546-8.13549,8.17267.48754ZM26.565,37.72l.41565,3.73492-3.75171-.22382-.41571-3.735Zm2.02558.12084,9.01355.53779a1.001,1.001,0,0,0,1.05371-1.1084L37.659,28.29654l3.75146.22376,1.54517,13.88757L29.0062,41.57572Zm15.43054,6.63447a1.00743,1.00743,0,0,0,1.0537-1.10841l-1.63848-14.7257,3.75207.22388,2.18525,19.6405L29.64651,47.32871l-.41583-3.7359Zm-3.89063-27.46.41565,3.736-3.75177-.22382-.41583-3.736ZM11.03427,34.78971,8.2081,9.39713l25.50439,1.52148.41571,3.735-20.568-1.22717a.99962.99962,0,0,0-1.05322,1.1084l2.27893,20.47869Zm6.41748,6.09668-.41571-3.735,3.75153.22382.41565,3.735ZM23.86923,46.984l-.41583-3.736,3.75165.22382.41577,3.736Zm6.41748,6.09668-.41571-3.735,20.56806,1.22717a1.001,1.001,0,0,0,1.05371-1.1084L49.2142,28.98588l3.75122.22375L55.7916,54.60221Z">
                     </path>
                  </g>
               </svg></svg>
            <defs>
               <filter id="colors7574314462">
                  <feColorMatrix type="matrix" values="0 0 0 0 0.9765625  0 0 0 0 0.4375  0 0 0 0 0.6015625  0 0 0 1 0"
                     class="icon-fecolormatrix"></feColorMatrix>
               </filter>
               <filter id="colorsf2541632826">
                  <feColorMatrix type="matrix"
                     values="0 0 0 0 0.99609375  0 0 0 0 0.99609375  0 0 0 0 0.99609375  0 0 0 1 0"
                     class="icon-fecolormatrix"></feColorMatrix>
               </filter>
               <filter id="colorsb3090961947">
                  <feColorMatrix type="matrix" values="0 0 0 0 0  0 0 0 0 0  0 0 0 0 0  0 0 0 1 0"
                     class="icon-fecolormatrix"></feColorMatrix>
               </filter>
            </defs>
         </g>
      </g>
   </mask>
</svg>